<svg width="256" height="256" viewBox="0 0 256 256" fill="none" xmlns="http://www.w3.org/2000/svg" role="img" aria-label="HireIQ logo">
  <defs>
    <linearGradient id="hireiqGradient" x1="34" y1="48" x2="222" y2="210" gradientUnits="userSpaceOnUse">
      <stop stop-color="#2ED8FF"/>
      <stop offset="0.5" stop-color="#56A7FF"/>
      <stop offset="1" stop-color="#D44BFF"/>
    </linearGradient>
  </defs>
  <rect width="256" height="256" rx="32" fill="#0B1220"/>
  <path d="M74 95C74 60.281 102.281 32 137 32H145C174.823 32 201 58.177 201 88V104C201 128.719 183.719 147 159 147H147V98H120V147H105C87.327 147 74 133.673 74 116V95Z" fill="url(#hireiqGradient)" fill-opacity="0.18"/>
  <path d="M128 42V154" stroke="url(#hireiqGradient)" stroke-width="8" stroke-linecap="round"/>
  <path d="M72 84C72 58.594 92.594 38 118 38C143.406 38 164 58.594 164 84" stroke="url(#hireiqGradient)" stroke-width="8" stroke-linecap="round"/>
  <path d="M92 96H62" stroke="url(#hireiqGradient)" stroke-width="8" stroke-linecap="round"/>
  <path d="M92 122H58" stroke="url(#hireiqGradient)" stroke-width="8" stroke-linecap="round"/>
  <path d="M162 96H194" stroke="url(#hireiqGradient)" stroke-width="8" stroke-linecap="round"/>
  <path d="M160 122H198" stroke="url(#hireiqGradient)" stroke-width="8" stroke-linecap="round"/>
  <path d="M90 94L118 121" stroke="url(#hireiqGradient)" stroke-width="8" stroke-linecap="round"/>
  <path d="M166 94L138 121" stroke="url(#hireiqGradient)" stroke-width="8" stroke-linecap="round"/>
  <circle cx="74" cy="84" r="10" fill="url(#hireiqGradient)"/>
  <circle cx="182" cy="84" r="10" fill="url(#hireiqGradient)"/>
  <circle cx="62" cy="122" r="8" fill="url(#hireiqGradient)"/>
  <circle cx="194" cy="122" r="8" fill="url(#hireiqGradient)"/>
  <path d="M104 158L128 184L152 158L136 208L128 216L120 208L104 158Z" fill="url(#hireiqGradient)"/>
  <path d="M61 208H195" stroke="url(#hireiqGradient)" stroke-width="6" stroke-linecap="round" opacity="0.7"/>
  <text x="128" y="246" text-anchor="middle" font-family="Inter, sans-serif" font-size="18" font-weight="700" fill="#DDEBFF">HireIQ</text>
</svg>
